<svg xmlns="http://www.w3.org/2000/svg" viewBox="0 0 1920 1200" width="1920" height="1200" role="img" preserveAspectRatio="xMidYMid slice">
<defs>
<filter id="g55" x="0" y="0" width="100%" height="100%">
  <feTurbulence type="fractalNoise" baseFrequency="0.9" numOctaves="4" seed="55" stitchTiles="stitch"/>
  <feColorMatrix type="saturate" values="0"/>
</filter>
<filter id="b55" x="-30%" y="-30%" width="160%" height="160%">
  <feGaussianBlur stdDeviation="105.6"/>
</filter>
<filter id="bs55" x="-30%" y="-30%" width="160%" height="160%">
  <feGaussianBlur stdDeviation="28.8"/>
</filter>
<radialGradient id="v55" cx="50%" cy="46%" r="72%">
  <stop offset="42%" stop-color="#000" stop-opacity="0"/>
  <stop offset="100%" stop-color="#000" stop-opacity="0.88"/>
</radialGradient>
<radialGradient id="ga55" cx="50%" cy="50%" r="50%"><stop offset="0%" stop-color="#2C6B8F" stop-opacity="0.36"/><stop offset="55%" stop-color="#2C6B8F" stop-opacity="0.101"/><stop offset="100%" stop-color="#2C6B8F" stop-opacity="0"/></radialGradient><linearGradient id="fl55" x1="0" y1="0" x2="0.3" y2="1">
      <stop offset="0%" stop-color="#090D12"/><stop offset="100%" stop-color="#000"/>
    </linearGradient></defs><rect width="1920" height="1200" fill="url(#fl55)"/><ellipse cx="960.0" cy="528.0" rx="1190.4" ry="1190.4" fill="url(#ga55)"/><line x1="38" y1="0" x2="-115" y2="1200" stroke="#2C6B8F" stroke-width="1" opacity="0.16"/><line x1="157" y1="0" x2="4" y2="1200" stroke="#2C6B8F" stroke-width="1" opacity="0.16"/><line x1="276" y1="0" x2="123" y2="1200" stroke="#2C6B8F" stroke-width="1" opacity="0.16"/><line x1="396" y1="0" x2="242" y2="1200" stroke="#2C6B8F" stroke-width="1" opacity="0.16"/><line x1="515" y1="0" x2="361" y2="1200" stroke="#2C6B8F" stroke-width="1" opacity="0.16"/><line x1="634" y1="0" x2="480" y2="1200" stroke="#2C6B8F" stroke-width="1" opacity="0.16"/><line x1="753" y1="0" x2="599" y2="1200" stroke="#2C6B8F" stroke-width="1" opacity="0.16"/><line x1="872" y1="0" x2="718" y2="1200" stroke="#2C6B8F" stroke-width="1" opacity="0.16"/><line x1="991" y1="0" x2="837" y2="1200" stroke="#2C6B8F" stroke-width="1" opacity="0.16"/><line x1="1110" y1="0" x2="956" y2="1200" stroke="#2C6B8F" stroke-width="1" opacity="0.16"/><line x1="1229" y1="0" x2="1075" y2="1200" stroke="#2C6B8F" stroke-width="1" opacity="0.16"/><line x1="1348" y1="0" x2="1194" y2="1200" stroke="#2C6B8F" stroke-width="1" opacity="0.16"/><line x1="1467" y1="0" x2="1313" y2="1200" stroke="#2C6B8F" stroke-width="1" opacity="0.16"/><line x1="1586" y1="0" x2="1432" y2="1200" stroke="#2C6B8F" stroke-width="1" opacity="0.16"/><line x1="1705" y1="0" x2="1551" y2="1200" stroke="#2C6B8F" stroke-width="1" opacity="0.16"/><line x1="1824" y1="0" x2="1670" y2="1200" stroke="#2C6B8F" stroke-width="1" opacity="0.16"/><rect width="1920" height="1200" fill="url(#v55)"/>
<rect width="1920" height="1200" filter="url(#g55)" opacity="0.14" style="mix-blend-mode:overlay"/>
</svg>
