<svg xmlns="http://www.w3.org/2000/svg" viewBox="0 0 1920 1200" width="1920" height="1200" role="img" preserveAspectRatio="xMidYMid slice">
<defs>
<filter id="g14" x="0" y="0" width="100%" height="100%">
  <feTurbulence type="fractalNoise" baseFrequency="0.9" numOctaves="4" seed="14" stitchTiles="stitch"/>
  <feColorMatrix type="saturate" values="0"/>
</filter>
<filter id="b14" x="-30%" y="-30%" width="160%" height="160%">
  <feGaussianBlur stdDeviation="105.6"/>
</filter>
<filter id="bs14" x="-30%" y="-30%" width="160%" height="160%">
  <feGaussianBlur stdDeviation="28.8"/>
</filter>
<radialGradient id="v14" cx="50%" cy="46%" r="72%">
  <stop offset="42%" stop-color="#000" stop-opacity="0"/>
  <stop offset="100%" stop-color="#000" stop-opacity="0.88"/>
</radialGradient>
<radialGradient id="ga14" cx="50%" cy="50%" r="50%"><stop offset="0%" stop-color="#D8602E" stop-opacity="0.55"/><stop offset="55%" stop-color="#D8602E" stop-opacity="0.154"/><stop offset="100%" stop-color="#D8602E" stop-opacity="0"/></radialGradient><radialGradient id="gb14" cx="50%" cy="50%" r="50%"><stop offset="0%" stop-color="#1E4E6B" stop-opacity="0.35"/><stop offset="55%" stop-color="#1E4E6B" stop-opacity="0.098"/><stop offset="100%" stop-color="#1E4E6B" stop-opacity="0"/></radialGradient><linearGradient id="fl14" x1="0" y1="0" x2="0" y2="1">
      <stop offset="0%" stop-color="#150C08"/><stop offset="45%" stop-color="#07090C"/><stop offset="100%" stop-color="#000"/>
    </linearGradient>
    <linearGradient id="bm14" x1="0" y1="0" x2="0" y2="1">
      <stop offset="0%" stop-color="#E68A5C" stop-opacity="0.34"/>
      <stop offset="100%" stop-color="#D8602E" stop-opacity="0"/>
    </linearGradient></defs><rect width="1920" height="1200" fill="url(#fl14)"/><ellipse cx="960.0" cy="264.0" rx="883.2" ry="883.2" fill="url(#ga14)"/><ellipse cx="384.0" cy="744.0" rx="652.8000000000001" ry="652.8000000000001" fill="url(#gb14)"/><g filter="url(#bs14)"><path d="M844.8 0 L1075.2 0 L1382.3999999999999 1200 L499.20000000000005 1200 Z" fill="url(#bm14)"/><path d="M307.2 0 L422.4 0 L192.0 1200 L38.4 1200 Z" fill="url(#bm14)" opacity="0.5"/></g><circle cx="477" cy="1124" r="39" fill="#000" opacity="0.95"/><rect x="426" y="1124" width="102" height="168" rx="32" fill="#000" opacity="0.95"/><circle cx="1152" cy="1088" r="41" fill="#000" opacity="0.95"/><rect x="1098" y="1088" width="107" height="168" rx="33" fill="#000" opacity="0.95"/><circle cx="63" cy="1111" r="46" fill="#000" opacity="0.95"/><rect x="3" y="1111" width="120" height="168" rx="37" fill="#000" opacity="0.95"/><circle cx="470" cy="1136" r="50" fill="#000" opacity="0.95"/><rect x="406" y="1136" width="130" height="168" rx="40" fill="#000" opacity="0.95"/><circle cx="1580" cy="1157" r="38" fill="#000" opacity="0.95"/><rect x="1531" y="1157" width="98" height="168" rx="30" fill="#000" opacity="0.95"/><circle cx="316" cy="1184" r="42" fill="#000" opacity="0.95"/><rect x="262" y="1184" width="108" height="168" rx="33" fill="#000" opacity="0.95"/><circle cx="1003" cy="1161" r="44" fill="#000" opacity="0.95"/><rect x="946" y="1161" width="114" height="168" rx="35" fill="#000" opacity="0.95"/><circle cx="156" cy="1151" r="44" fill="#000" opacity="0.95"/><rect x="99" y="1151" width="115" height="168" rx="35" fill="#000" opacity="0.95"/><circle cx="594" cy="1184" r="28" fill="#000" opacity="0.95"/><rect x="558" y="1184" width="72" height="168" rx="22" fill="#000" opacity="0.95"/><circle cx="910" cy="1185" r="43" fill="#000" opacity="0.95"/><rect x="853" y="1185" width="113" height="168" rx="35" fill="#000" opacity="0.95"/><circle cx="1355" cy="1127" r="48" fill="#000" opacity="0.95"/><rect x="1292" y="1127" width="125" height="168" rx="38" fill="#000" opacity="0.95"/><circle cx="1515" cy="1192" r="37" fill="#000" opacity="0.95"/><rect x="1466" y="1192" width="97" height="168" rx="30" fill="#000" opacity="0.95"/><circle cx="1658" cy="1096" r="29" fill="#000" opacity="0.95"/><rect x="1620" y="1096" width="76" height="168" rx="23" fill="#000" opacity="0.95"/><circle cx="438" cy="1132" r="49" fill="#000" opacity="0.95"/><rect x="374" y="1132" width="128" height="168" rx="39" fill="#000" opacity="0.95"/><circle cx="1193" cy="1141" r="34" fill="#000" opacity="0.95"/><rect x="1149" y="1141" width="88" height="168" rx="27" fill="#000" opacity="0.95"/><circle cx="750" cy="1150" r="35" fill="#000" opacity="0.95"/><rect x="704" y="1150" width="91" height="168" rx="28" fill="#000" opacity="0.95"/><circle cx="1115" cy="1162" r="48" fill="#000" opacity="0.95"/><rect x="1053" y="1162" width="124" height="168" rx="38" fill="#000" opacity="0.95"/><circle cx="1751" cy="1199" r="47" fill="#000" opacity="0.95"/><rect x="1690" y="1199" width="121" height="168" rx="37" fill="#000" opacity="0.95"/><circle cx="1276" cy="1183" r="31" fill="#000" opacity="0.95"/><rect x="1236" y="1183" width="80" height="168" rx="25" fill="#000" opacity="0.95"/><circle cx="1816" cy="1148" r="48" fill="#000" opacity="0.95"/><rect x="1754" y="1148" width="124" height="168" rx="38" fill="#000" opacity="0.95"/><circle cx="1354" cy="1180" r="32" fill="#000" opacity="0.95"/><rect x="1313" y="1180" width="83" height="168" rx="25" fill="#000" opacity="0.95"/><circle cx="1096" cy="1088" r="33" fill="#000" opacity="0.95"/><rect x="1052" y="1088" width="87" height="168" rx="27" fill="#000" opacity="0.95"/><circle cx="1612" cy="1091" r="50" fill="#000" opacity="0.95"/><rect x="1548" y="1091" width="129" height="168" rx="40" fill="#000" opacity="0.95"/><circle cx="1514" cy="1098" r="36" fill="#000" opacity="0.95"/><rect x="1467" y="1098" width="94" height="168" rx="29" fill="#000" opacity="0.95"/><circle cx="580" cy="1185" r="45" fill="#000" opacity="0.95"/><rect x="522" y="1185" width="116" height="168" rx="36" fill="#000" opacity="0.95"/><circle cx="120" cy="1085" r="41" fill="#000" opacity="0.95"/><rect x="67" y="1085" width="107" height="168" rx="33" fill="#000" opacity="0.95"/><circle cx="1363" cy="1186" r="35" fill="#000" opacity="0.95"/><rect x="1318" y="1186" width="90" height="168" rx="28" fill="#000" opacity="0.95"/><circle cx="1846" cy="1200" r="39" fill="#000" opacity="0.95"/><rect x="1796" y="1200" width="100" height="168" rx="31" fill="#000" opacity="0.95"/><circle cx="609" cy="1152" r="29" fill="#000" opacity="0.95"/><rect x="572" y="1152" width="74" height="168" rx="23" fill="#000" opacity="0.95"/><circle cx="96" cy="1129" r="31" fill="#000" opacity="0.95"/><rect x="55" y="1129" width="82" height="168" rx="25" fill="#000" opacity="0.95"/><circle cx="1164" cy="1085" r="30" fill="#000" opacity="0.95"/><rect x="1124" y="1085" width="79" height="168" rx="24" fill="#000" opacity="0.95"/><circle cx="1638" cy="1195" r="34" fill="#000" opacity="0.95"/><rect x="1594" y="1195" width="89" height="168" rx="27" fill="#000" opacity="0.95"/><circle cx="1691" cy="1135" r="36" fill="#000" opacity="0.95"/><rect x="1645" y="1135" width="93" height="168" rx="28" fill="#000" opacity="0.95"/><circle cx="997" cy="1151" r="42" fill="#000" opacity="0.95"/><rect x="943" y="1151" width="108" height="168" rx="33" fill="#000" opacity="0.95"/><circle cx="1069" cy="1193" r="41" fill="#000" opacity="0.95"/><rect x="1016" y="1193" width="107" height="168" rx="33" fill="#000" opacity="0.95"/><circle cx="973" cy="1166" r="37" fill="#000" opacity="0.95"/><rect x="925" y="1166" width="96" height="168" rx="29" fill="#000" opacity="0.95"/><circle cx="476" cy="1197" r="34" fill="#000" opacity="0.95"/><rect x="432" y="1197" width="88" height="168" rx="27" fill="#000" opacity="0.95"/><circle cx="999" cy="1081" r="40" fill="#000" opacity="0.95"/><rect x="948" y="1081" width="103" height="168" rx="32" fill="#000" opacity="0.95"/><circle cx="804" cy="1082" r="40" fill="#000" opacity="0.95"/><rect x="751" y="1082" width="105" height="168" rx="32" fill="#000" opacity="0.95"/><circle cx="1173" cy="1087" r="41" fill="#000" opacity="0.95"/><rect x="1120" y="1087" width="108" height="168" rx="33" fill="#000" opacity="0.95"/><circle cx="1195" cy="1162" r="38" fill="#000" opacity="0.95"/><rect x="1146" y="1162" width="98" height="168" rx="30" fill="#000" opacity="0.95"/><circle cx="688" cy="1169" r="43" fill="#000" opacity="0.95"/><rect x="632" y="1169" width="112" height="168" rx="35" fill="#000" opacity="0.95"/><circle cx="79" cy="1161" r="28" fill="#000" opacity="0.95"/><rect x="43" y="1161" width="74" height="168" rx="23" fill="#000" opacity="0.95"/><circle cx="1814" cy="1135" r="33" fill="#000" opacity="0.95"/><rect x="1771" y="1135" width="85" height="168" rx="26" fill="#000" opacity="0.95"/><circle cx="1131" cy="1124" r="34" fill="#000" opacity="0.95"/><rect x="1086" y="1124" width="89" height="168" rx="27" fill="#000" opacity="0.95"/><circle cx="615" cy="1151" r="35" fill="#000" opacity="0.95"/><rect x="569" y="1151" width="92" height="168" rx="28" fill="#000" opacity="0.95"/><rect width="1920" height="1200" fill="url(#v14)"/>
<rect width="1920" height="1200" filter="url(#g14)" opacity="0.18" style="mix-blend-mode:overlay"/>
</svg>
